<?xml version="1.0" encoding="iso-8859-1"?>
<!-- Generator: Adobe Illustrator 19.0.0, SVG Export Plug-In . SVG Version: 6.00 Build 0)  -->
<svg version="1.1" id="Layer_1" xmlns="http://www.w3.org/2000/svg" xmlns:xlink="http://www.w3.org/1999/xlink" x="0px" y="0px"
	 viewBox="0 0 214.201 214.201" style="enable-background:new 0 0 214.201 214.201;" xml:space="preserve">
<g>
	<g>
		<g>
			<path d="M212.701,68.295c-0.937-0.752-2.181-1.027-3.359-0.761l-51.567,11.9c-1.801,0.416-3.076,2.018-3.076,3.866v11.9h-11.9
				V75.396c0-6.578-5.338-11.929-11.9-11.929H110.33c0.448-1.253,0.736-2.584,0.736-3.99V53.55c0-9.843-8.011-17.85-17.858-17.85
				h-39.65c-9.847,0-17.858,8.007-17.858,17.85v5.927c0,1.406,0.288,2.737,0.736,3.99H11.9C5.338,63.467,0,68.818,0,75.396v91.175
				c0,6.578,5.338,11.929,11.9,11.929h119c6.562,0,11.9-5.351,11.9-11.929v-19.804h11.9v11.9c0,1.848,1.274,3.449,3.076,3.866
				l51.567,11.9c0.294,0.068,0.593,0.101,0.891,0.101c0.887,0,1.762-0.298,2.468-0.862c0.949-0.753,1.499-1.896,1.499-3.105V71.401
				C214.2,70.191,213.65,69.049,212.701,68.295z M43.633,53.55c0-5.468,4.451-9.917,9.925-9.917h39.651
				c5.473,0,9.924,4.449,9.924,9.917v5.927c0,2.2-1.778,3.99-3.967,3.99H47.6c-2.223,0-3.967-1.753-3.967-3.99V53.55z
				 M134.867,99.167V142.8v23.771c0,2.204-1.778,3.996-3.967,3.996h-119c-2.189,0-3.967-1.792-3.967-3.996V75.396
				c0-2.204,1.778-3.996,3.967-3.996h35.7h51.567H130.9c2.189,0,3.967,1.792,3.967,3.996V99.167z M154.7,138.833h-11.9v-35.7h11.9
				V138.833z M206.267,165.581l-43.633-10.07V142.8V99.167V86.456l43.633-10.07V165.581z"/>
			<path d="M111.071,103.133H83.296c-7.369,0-13.526,5.077-15.299,11.9H43.633H35.7v7.933v11.9h7.933v-11.9h24.363
				c1.773,6.823,7.93,11.9,15.299,11.9h27.775c8.747,0,15.863-7.118,15.863-15.867C126.933,110.25,119.818,103.133,111.071,103.133z
				 M111.071,126.933H83.296c-4.373,0-7.929-3.558-7.929-7.933s3.556-7.933,7.929-7.933h27.775c4.373,0,7.929,3.558,7.929,7.933
				S115.444,126.933,111.071,126.933z"/>
		</g>
	</g>
</g>
<g>
</g>
<g>
</g>
<g>
</g>
<g>
</g>
<g>
</g>
<g>
</g>
<g>
</g>
<g>
</g>
<g>
</g>
<g>
</g>
<g>
</g>
<g>
</g>
<g>
</g>
<g>
</g>
<g>
</g>
</svg>
