<?xml version="1.0" encoding="iso-8859-1"?>
<!-- Generator: Adobe Illustrator 19.0.0, SVG Export Plug-In . SVG Version: 6.00 Build 0)  -->
<svg version="1.1" id="Layer_1" xmlns="http://www.w3.org/2000/svg" xmlns:xlink="http://www.w3.org/1999/xlink" x="0px" y="0px"
	 viewBox="0 0 512 512" style="enable-background:new 0 0 512 512;" xml:space="preserve">
<g>
	<g>
		<path d="M184.827,58.35c-1.026-3.138-3.74-5.428-7.014-5.903l-12.603-1.832l-5.64-11.424c-2.917-5.937-12.654-5.937-15.571,0
			l-5.64,11.424l-12.603,1.832c-3.274,0.475-5.988,2.765-7.014,5.903c-1.018,3.146-0.17,6.598,2.197,8.905l9.126,8.897
			l-2.154,12.552c-0.56,3.257,0.78,6.547,3.452,8.489c2.697,1.951,6.225,2.214,9.151,0.662l11.271-5.928l11.271,5.928
			c1.272,0.67,2.663,1.001,4.045,1.001c1.798,0,3.587-0.56,5.106-1.662c2.671-1.942,4.011-5.233,3.452-8.489l-2.154-12.552
			l9.126-8.897C184.997,64.948,185.845,61.496,184.827,58.35z M155.576,74.294c-1.196-0.577-2.493-0.865-3.791-0.865
			c-1.298,0-2.595,0.288-3.791,0.865c0.365-2.629-0.492-5.275-2.332-7.192c2.612-0.466,4.868-2.112,6.123-4.452
			c1.255,2.341,3.511,3.986,6.123,4.452C156.068,69.018,155.211,71.665,155.576,74.294z"/>
	</g>
</g>
<g>
	<g>
		<path d="M297.727,23.611c-1.026-3.138-3.74-5.428-7.014-5.903l-12.603-1.832l-5.64-11.424c-2.917-5.937-12.654-5.937-15.571,0
			l-5.64,11.424l-12.603,1.832c-3.274,0.475-5.988,2.765-7.014,5.903c-1.018,3.146-0.17,6.598,2.197,8.905l9.126,8.897
			l-2.154,12.552c-0.56,3.257,0.78,6.547,3.452,8.489c2.68,1.959,6.233,2.205,9.151,0.662l11.271-5.928l11.271,5.928
			c1.272,0.67,2.663,1.001,4.045,1.001c1.798,0,3.587-0.56,5.106-1.662c2.671-1.942,4.011-5.233,3.452-8.489l-2.154-12.552
			l9.126-8.897C297.896,30.209,298.744,26.758,297.727,23.611z M268.476,39.555c-1.196-0.577-2.493-0.865-3.791-0.865
			c-1.298,0-2.595,0.288-3.791,0.865c0.365-2.629-0.492-5.275-2.332-7.192c2.612-0.466,4.868-2.112,6.123-4.452
			c1.255,2.341,3.511,3.986,6.123,4.452C268.968,34.28,268.111,36.926,268.476,39.555z"/>
	</g>
</g>
<g>
	<g>
		<path d="M401.942,58.349c-1.026-3.138-3.74-5.428-7.014-5.903l-12.603-1.832l-5.64-11.424c-2.917-5.937-12.654-5.937-15.571,0
			l-5.64,11.424l-12.603,1.832c-3.274,0.475-5.988,2.765-7.014,5.903c-1.018,3.146-0.17,6.598,2.197,8.905l9.126,8.897
			l-2.154,12.552c-0.56,3.257,0.78,6.547,3.452,8.489c2.688,1.951,6.225,2.214,9.151,0.662l11.271-5.928l11.271,5.928
			c1.272,0.67,2.663,1.001,4.045,1.001c1.798,0,3.587-0.56,5.106-1.662c2.671-1.942,4.011-5.233,3.452-8.489l-2.154-12.552
			l9.125-8.897C402.111,64.948,402.959,61.496,401.942,58.349z M372.691,74.294c-1.196-0.577-2.493-0.865-3.791-0.865
			s-2.595,0.288-3.791,0.865c0.365-2.629-0.492-5.275-2.332-7.192c2.612-0.466,4.868-2.112,6.123-4.452
			c1.255,2.341,3.511,3.986,6.123,4.452C373.183,69.018,372.326,71.665,372.691,74.294z"/>
	</g>
</g>
<g>
	<g>
		<path d="M419.921,174.124v-52.93c0-4.8-2.799-7.862-7.599-7.862H99.678c-4.8,0-9.77,3.062-9.77,7.862v52.107v17.369v312.645
			c0,3.367,2.493,6.437,5.547,7.862c3.028,1.433,6.921,0.967,9.516-1.187l150.895-125.638L406.691,509.99
			c1.594,1.323,3.604,2.01,5.597,2.01c1.247,0,1.984-0.271,3.155-0.823c3.053-1.425,4.478-4.495,4.478-7.862V191.493h2.171v-17.369
			H419.921z M402.552,484.776L261.021,366.372c-1.611-1.34-3.316-2.01-5.292-2.01c-1.976,0-4.359,0.67-5.971,2.01L107.277,484.776
			V191.493h295.276V484.776z M402.552,174.124H107.277v-43.423h295.276V174.124z"/>
	</g>
</g>
<g>
	<g>
		<path d="M330.336,262.055c-1.026-3.146-3.74-5.436-7.014-5.911l-41.133-5.988l-18.404-37.274c-2.917-5.937-12.654-5.937-15.571,0
			l-18.404,37.274l-41.133,5.988c-3.274,0.475-5.988,2.765-7.014,5.911c-1.018,3.138-0.17,6.59,2.197,8.897l29.769,29.022
			l-7.022,40.972c-0.56,3.257,0.78,6.548,3.452,8.49c2.68,1.951,6.234,2.205,9.151,0.662L256,330.752l36.791,19.345
			c1.272,0.67,2.663,1.001,4.045,1.001c1.798,0,3.587-0.56,5.106-1.662c2.671-1.942,4.011-5.233,3.452-8.49l-7.022-40.972
			l29.769-29.022C330.506,268.645,331.354,265.193,330.336,262.055z M282.978,290.721c-2.044,1.993-2.977,4.868-2.494,7.684
			l4.817,28.132l-25.257-13.281c-1.272-0.67-2.655-1.001-4.045-1.001s-2.773,0.331-4.045,1.001l-25.256,13.281l4.817-28.132
			c0.483-2.816-0.45-5.691-2.494-7.684l-20.439-19.922l28.242-4.113c2.833-0.407,5.275-2.188,6.539-4.749L256,236.341l12.637,25.596
			c1.264,2.561,3.706,4.342,6.539,4.749l28.242,4.113L282.978,290.721z"/>
	</g>
</g>
<g>
</g>
<g>
</g>
<g>
</g>
<g>
</g>
<g>
</g>
<g>
</g>
<g>
</g>
<g>
</g>
<g>
</g>
<g>
</g>
<g>
</g>
<g>
</g>
<g>
</g>
<g>
</g>
<g>
</g>
</svg>
